<?xml version="1.0" standalone="no"?>
<!DOCTYPE svg PUBLIC "-//W3C//DTD SVG 20010904//EN"
 "http://www.w3.org/TR/2001/REC-SVG-20010904/DTD/svg10.dtd">
<svg version="1.0" xmlns="http://www.w3.org/2000/svg"
 width="322.000000pt" height="204.000000pt" viewBox="0 0 322.000000 204.000000"
 preserveAspectRatio="xMidYMid meet">

<g transform="translate(0.000000,204.000000) scale(0.100000,-0.100000)"
fill="#000000" stroke="none">
<path d="M1510 1899 c-30 -5 -239 -66 -465 -135 -225 -70 -489 -150 -585 -179
-96 -29 -187 -58 -201 -63 -44 -17 -101 -74 -123 -122 -19 -43 -20 -63 -19
-382 1 -478 -22 -446 411 -580 621 -193 948 -288 1011 -296 128 -15 149 -10
941 233 228 70 435 135 460 146 57 25 107 73 131 124 17 36 19 70 19 376 l0
335 -27 55 c-18 34 -43 64 -69 82 -29 20 -202 78 -625 208 -687 213 -721 220
-859 198z m-860 -578 c0 -5 -21 -57 -47 -117 -44 -102 -67 -204 -46 -204 22 0
51 33 68 75 9 25 19 44 21 42 8 -8 -28 -83 -54 -109 -25 -28 -56 -36 -66 -20
-22 37 16 171 88 310 15 30 36 43 36 23z m1607 -124 c-25 -61 -49 -128 -52
-148 -13 -73 38 -54 74 26 28 64 109 111 124 71 10 -25 -18 -61 -64 -84 -36
-18 -46 -27 -42 -42 16 -60 116 -5 132 72 9 42 34 44 35 3 0 -32 -32 -105 -46
-105 -4 0 -8 7 -8 16 0 13 -5 12 -34 -5 -42 -26 -82 -27 -98 -2 -11 19 -12 18
-40 -2 -35 -26 -63 -14 -63 27 l1 26 -35 -35 c-39 -41 -74 -44 -79 -7 l-3 22
-26 -20 c-32 -25 -63 -26 -70 -1 -4 17 -6 17 -28 -5 -27 -27 -47 -30 -64 -10
-10 12 -18 11 -50 -7 -33 -18 -43 -19 -65 -9 -19 8 -26 19 -26 38 l0 27 -26
-27 c-30 -29 -56 -33 -74 -11 -12 14 -15 13 -35 -5 -27 -26 -55 -26 -62 0 -4
16 -9 18 -19 9 -7 -6 1 14 17 45 48 88 112 129 147 94 15 -15 16 -38 2 -38 -5
0 -10 7 -10 15 0 27 -30 29 -56 4 -33 -31 -54 -71 -54 -104 0 -41 26 -29 75
37 32 44 52 41 29 -4 -11 -20 -12 -34 -6 -40 18 -18 40 -1 77 56 48 75 93 97
114 57 8 -13 6 -23 -5 -37 -15 -18 -15 -18 -10 7 7 32 -1 41 -25 28 -27 -14
-51 -65 -47 -102 2 -26 8 -33 29 -35 28 -3 53 21 98 96 28 48 73 76 107 68 23
-6 36 -46 14 -46 -5 0 -10 6 -10 14 0 48 -58 17 -89 -47 -42 -87 -15 -105 45
-29 21 26 40 49 41 51 2 2 6 2 9 -2 3 -3 0 -21 -7 -41 -25 -69 20 -60 71 15
38 55 78 89 107 89 13 0 9 -6 -15 -20 -54 -33 -92 -116 -61 -135 26 -17 72 54
123 190 14 39 36 86 48 105 38 63 31 13 -15 -103z m-1374 36 c9 -9 -12 -33
-29 -33 -17 0 -18 27 -1 33 18 8 23 8 30 0z m287 -7 c0 -19 -17 -29 -37 -22
-12 5 -13 9 -3 21 16 19 40 19 40 1z m-478 -90 c20 -19 21 -48 3 -103 -6 -19
-4 -23 13 -23 24 0 60 41 86 97 10 23 25 44 32 47 19 7 17 -8 -6 -54 -26 -50
-27 -90 -2 -90 24 0 58 37 66 73 11 46 26 30 26 -28 0 -30 4 -55 8 -55 21 0
61 65 71 114 4 16 12 31 20 34 10 3 11 -6 5 -44 -6 -39 -4 -49 12 -61 15 -11
15 -13 2 -13 -8 0 -21 7 -28 15 -11 14 -16 11 -38 -19 -39 -56 -81 -57 -82 -4
0 14 -5 12 -25 -8 -30 -30 -66 -29 -79 2 -9 20 -9 20 -34 -3 -29 -26 -54 -29
-72 -8 -10 11 -9 24 3 58 15 44 7 84 -14 72 -11 -7 -12 38 -1 49 4 4 9 0 11
-11 2 -10 12 -26 23 -37z m-299 10 c10 -25 -18 -61 -64 -84 -36 -18 -46 -27
-42 -42 12 -44 66 -31 110 26 50 68 100 114 122 114 27 0 28 -15 0 -17 -30 -3
-50 -22 -71 -70 -17 -40 -16 -73 4 -73 5 0 20 12 33 26 14 15 25 22 25 16 0
-14 -58 -62 -75 -62 -8 0 -20 9 -28 19 -13 20 -13 20 -43 1 -33 -22 -74 -26
-92 -8 -16 16 -15 63 3 97 28 55 105 92 118 57z m710 -52 c-28 -61 -25 -87 9
-82 16 2 30 18 48 55 28 58 56 73 45 23 l-6 -29 34 34 c19 19 42 35 50 35 23
0 40 -27 33 -55 -3 -14 -9 -36 -12 -50 -5 -18 -2 -25 8 -25 20 0 45 29 53 62
9 37 78 98 110 98 14 0 25 -4 25 -10 0 -5 -11 -10 -24 -10 -44 0 -104 -96 -77
-123 15 -15 68 36 76 74 4 16 13 29 21 29 8 0 14 -1 14 -2 0 -2 -7 -27 -15
-57 -8 -30 -12 -58 -9 -62 2 -4 0 -10 -5 -14 -6 -3 -22 -28 -37 -55 -26 -48
-53 -68 -74 -55 -23 14 -8 47 35 77 25 18 45 35 45 39 0 4 3 15 7 25 6 16 3
15 -21 -4 -34 -26 -52 -28 -65 -5 -9 17 -10 17 -28 0 -24 -21 -59 -22 -66 -3
-3 8 -2 30 3 48 20 69 -29 62 -79 -12 -35 -51 -51 -62 -51 -35 0 14 -3 14 -25
-1 -57 -37 -90 18 -53 90 26 52 38 67 48 61 5 -3 -3 -30 -17 -61z m1467 19 c0
-37 0 -37 16 -15 11 16 24 22 42 20 29 -3 31 -13 17 -75 -6 -26 -4 -33 7 -33
21 0 43 28 59 73 13 37 35 64 44 55 2 -2 -2 -26 -10 -52 -15 -48 -13 -66 6
-66 14 0 53 48 59 72 7 28 30 35 30 10 0 -11 -7 -38 -15 -61 -17 -48 -12 -51
28 -13 24 22 27 23 16 5 -7 -12 -24 -28 -37 -35 -13 -7 -33 -30 -44 -53 -27
-52 -47 -75 -68 -75 -44 0 -27 57 24 85 20 11 38 26 40 35 3 8 7 25 11 38 6
22 6 22 -19 -3 -29 -29 -39 -31 -60 -10 -14 14 -17 14 -36 -5 -41 -41 -78 -14
-61 44 18 67 -26 54 -65 -19 -10 -19 -24 -35 -31 -35 -16 0 -16 -1 2 50 8 23
15 49 15 56 0 20 -24 17 -45 -6 -10 -11 -21 -18 -23 -15 -11 10 52 65 75 65
20 0 23 -5 23 -37z m-945 -333 l-19 -21 -20 20 c-19 20 -19 21 -1 41 l19 21
20 -20 c19 -20 19 -21 1 -41z"/>
<path d="M2352 1134 c-29 -20 -58 -74 -40 -74 30 1 89 72 70 84 -5 3 -18 -2
-30 -10z"/>
<path d="M342 1134 c-29 -20 -58 -74 -40 -74 30 1 89 72 70 84 -5 3 -18 -2
-30 -10z"/>
<path d="M1409 945 c-39 -21 -52 -66 -15 -52 12 5 54 68 44 67 -2 -1 -15 -7
-29 -15z"/>
<path d="M2737 939 c-27 -20 -37 -54 -15 -47 16 6 53 56 46 63 -3 3 -17 -4
-31 -16z"/>
</g>
</svg>
